<svg width="1920" height="441" viewBox="0 0 1920 441" fill="none" xmlns="http://www.w3.org/2000/svg">
<path d="M-35.5471 0.777198H85.8113V80.8614H-35.5471V0.777198ZM-29.3868 123.984H79.651V432H-29.3868V123.984ZM514.021 432H387.119L300.258 319.882L256.52 360.54V432H147.482V0.777198H256.52V238.566L377.878 123.984H506.629L372.95 250.27L514.021 432ZM609.506 317.418C611.149 334.256 616.899 346.782 626.755 354.996C637.022 362.799 651.807 366.701 671.11 366.701C708.072 366.701 726.553 359.308 726.553 344.523C726.553 339.184 724.294 334.872 719.776 331.587C715.259 327.89 707.25 324.605 695.751 321.73C684.662 318.855 667.619 315.775 644.62 312.49C599.855 305.508 567.616 294.009 547.903 277.992C528.19 261.975 518.334 239.592 518.334 210.844C518.334 181.685 531.886 158.687 558.992 141.849C586.508 125.01 623.88 116.591 671.11 116.591C710.536 116.591 744.417 123.778 772.755 138.152C801.503 152.527 820.6 171.829 830.046 196.06L727.169 233.638C725.526 219.263 719.982 208.38 710.536 200.988C701.09 193.185 687.948 189.283 671.11 189.283C638.255 189.283 621.827 196.47 621.827 210.844C621.827 215.773 624.086 219.879 628.603 223.165C633.532 226.45 641.745 229.736 653.245 233.021C665.155 235.896 682.814 239.182 706.223 242.878C750.167 250.27 781.79 261.975 801.092 277.992C820.395 293.598 830.046 315.775 830.046 344.523C830.046 374.914 816.288 398.324 788.772 414.751C761.256 431.179 722.035 439.392 671.11 439.392C581.99 439.392 526.547 411.466 504.781 355.612L609.506 317.418ZM972.643 292.777C975.929 312.49 984.553 328.301 998.516 340.211C1012.89 352.121 1030.55 358.076 1051.5 358.076C1069.15 358.076 1084.14 353.353 1096.47 343.907C1108.79 334.462 1116.59 321.73 1119.87 305.713L1225.83 343.907C1212.28 374.298 1190.31 397.913 1159.92 414.751C1129.94 431.179 1093.8 439.392 1051.5 439.392C1013.71 439.392 980.651 432.821 952.314 419.679C924.387 406.537 902.621 387.851 887.015 363.62C871.819 338.979 864.221 310.436 864.221 277.992C864.221 245.547 871.819 217.21 887.015 192.979C902.621 168.749 924.387 150.062 952.314 136.92C980.651 123.368 1013.71 116.591 1051.5 116.591C1087.23 116.591 1118.85 122.957 1146.36 135.688C1173.88 148.009 1195.24 165.258 1210.43 187.435C1226.04 209.202 1233.84 233.843 1233.84 261.359C1233.84 272.858 1232.81 283.331 1230.76 292.777H972.643ZM1051.5 197.908C1032.6 197.908 1016.38 202.631 1002.83 212.076C989.276 221.522 980.035 234.459 975.107 250.886H1121.72C1117.62 234.87 1109.2 222.138 1096.47 212.692C1084.14 202.836 1069.15 197.908 1051.5 197.908ZM1514.23 116.591C1551.19 116.591 1580.35 130.144 1601.71 157.249C1623.06 184.355 1633.74 221.112 1633.74 267.519V432H1524.7V286C1524.7 260.538 1518.95 240.825 1507.46 226.861C1496.37 212.487 1480.56 205.3 1460.02 205.3C1439.49 205.3 1423.47 212.487 1411.97 226.861C1400.88 240.825 1395.34 260.538 1395.34 286V432H1286.3V123.984H1395.34V234.254C1399.86 197.292 1412.59 168.543 1433.53 148.009C1454.48 127.064 1481.38 116.591 1514.23 116.591ZM1947.96 422.143C1919.62 434.053 1888.61 440.008 1854.94 440.008C1811.4 440.008 1778.96 429.947 1757.6 409.823C1736.66 389.288 1726.19 358.281 1726.19 316.802V193.595H1661.5V123.984H1673.82C1699.29 123.984 1717.36 118.645 1728.03 107.967C1739.12 96.8783 1744.67 78.6027 1744.67 53.14V31.5788H1843.23V53.14C1843.23 71.2103 1839.95 85.379 1833.38 95.6462C1826.8 105.913 1815.92 113.306 1800.73 117.823C1785.53 121.93 1764.38 123.984 1737.27 123.984H1930.09V193.595H1835.22V290.929C1835.22 311.874 1838.51 327.274 1845.08 337.131C1852.06 346.577 1863.15 351.3 1878.35 351.3C1888.2 351.3 1897.24 348.836 1905.45 343.907C1914.08 338.979 1922.29 331.176 1930.09 320.498L1947.96 422.143Z" fill="white"/>
<path d="M-35.5471 0.777198V-0.222802H-36.5471V0.777198H-35.5471ZM85.8113 0.777198H86.8113V-0.222802H85.8113V0.777198ZM85.8113 80.8614V81.8614H86.8113V80.8614H85.8113ZM-35.5471 80.8614H-36.5471V81.8614H-35.5471V80.8614ZM-29.3868 123.984V122.984H-30.3868V123.984H-29.3868ZM79.651 123.984H80.651V122.984H79.651V123.984ZM79.651 432V433H80.651V432H79.651ZM-29.3868 432H-30.3868V433H-29.3868V432ZM-35.5471 1.7772H85.8113V-0.222802H-35.5471V1.7772ZM84.8113 0.777198V80.8614H86.8113V0.777198H84.8113ZM85.8113 79.8614H-35.5471V81.8614H85.8113V79.8614ZM-34.5471 80.8614V0.777198H-36.5471V80.8614H-34.5471ZM-29.3868 124.984H79.651V122.984H-29.3868V124.984ZM78.651 123.984V432H80.651V123.984H78.651ZM79.651 431H-29.3868V433H79.651V431ZM-28.3868 432V123.984H-30.3868V432H-28.3868ZM514.021 432V433H516.064L514.811 431.387L514.021 432ZM387.119 432L386.328 432.612L386.628 433H387.119V432ZM300.258 319.882L301.049 319.27L300.378 318.405L299.577 319.15L300.258 319.882ZM256.52 360.54L255.839 359.808L255.52 360.104V360.54H256.52ZM256.52 432V433H257.52V432H256.52ZM147.482 432H146.482V433H147.482V432ZM147.482 0.777198V-0.222802H146.482V0.777198H147.482ZM256.52 0.777198H257.52V-0.222802H256.52V0.777198ZM256.52 238.566H255.52V240.885L257.206 239.293L256.52 238.566ZM377.878 123.984V122.984H377.481L377.192 123.257L377.878 123.984ZM506.629 123.984L507.316 124.711L509.144 122.984H506.629V123.984ZM372.95 250.27L372.263 249.543L371.603 250.167L372.16 250.884L372.95 250.27ZM514.021 431H387.119V433H514.021V431ZM387.909 431.388L301.049 319.27L299.467 320.495L386.328 432.612L387.909 431.388ZM299.577 319.15L255.839 359.808L257.201 361.273L300.939 320.614L299.577 319.15ZM255.52 360.54V432H257.52V360.54H255.52ZM256.52 431H147.482V433H256.52V431ZM148.482 432V0.777198H146.482V432H148.482ZM147.482 1.7772H256.52V-0.222802H147.482V1.7772ZM255.52 0.777198V238.566H257.52V0.777198H255.52ZM257.206 239.293L378.565 124.711L377.192 123.257L255.833 237.839L257.206 239.293ZM377.878 124.984H506.629V122.984H377.878V124.984ZM505.942 123.257L372.263 249.543L373.637 250.997L507.316 124.711L505.942 123.257ZM372.16 250.884L513.231 432.613L514.811 431.387L373.74 249.657L372.16 250.884ZM609.506 317.418L610.502 317.321L610.376 316.036L609.164 316.478L609.506 317.418ZM626.755 354.996L626.115 355.764L626.132 355.779L626.15 355.792L626.755 354.996ZM719.776 331.587L719.143 332.361L719.165 332.379L719.188 332.395L719.776 331.587ZM695.751 321.73L695.5 322.698L695.508 322.7L695.751 321.73ZM644.62 312.49L644.466 313.478L644.479 313.48L644.62 312.49ZM547.903 277.992L547.272 278.768L547.272 278.768L547.903 277.992ZM558.992 141.849L558.47 140.996L558.464 140.999L558.992 141.849ZM772.755 138.152L772.303 139.044L772.308 139.047L772.755 138.152ZM830.046 196.06L830.389 196.999L831.349 196.648L830.978 195.696L830.046 196.06ZM727.169 233.638L726.175 233.751L726.319 235.012L727.512 234.577L727.169 233.638ZM710.536 200.988L709.899 201.759L709.909 201.767L709.919 201.775L710.536 200.988ZM628.603 223.165L628.015 223.974L628.032 223.986L628.049 223.997L628.603 223.165ZM653.245 233.021L652.97 233.983L652.99 233.989L653.01 233.994L653.245 233.021ZM706.223 242.878L706.389 241.892L706.379 241.89L706.223 242.878ZM801.092 277.992L800.454 278.761L800.464 278.769L801.092 277.992ZM788.772 414.751L788.259 413.892L788.259 413.892L788.772 414.751ZM504.781 355.612L504.438 354.672L503.478 355.023L503.849 355.975L504.781 355.612ZM608.511 317.515C610.171 334.529 615.999 347.334 626.115 355.764L627.395 354.228C617.799 346.231 612.127 333.984 610.502 317.321L608.511 317.515ZM626.15 355.792C636.659 363.779 651.692 367.701 671.11 367.701V365.701C651.922 365.701 637.386 361.819 627.36 354.2L626.15 355.792ZM671.11 367.701C689.628 367.701 703.643 365.853 713.063 362.085C717.782 360.197 721.407 357.805 723.856 354.866C726.319 351.91 727.553 348.447 727.553 344.523H725.553C725.553 347.992 724.476 350.998 722.319 353.586C720.148 356.191 716.842 358.419 712.32 360.228C703.26 363.852 689.553 365.701 671.11 365.701V367.701ZM727.553 344.523C727.553 338.847 725.127 334.241 720.364 330.778L719.188 332.395C723.461 335.503 725.553 339.521 725.553 344.523H727.553ZM720.409 330.813C715.711 326.969 707.518 323.641 695.993 320.76L695.508 322.7C706.982 325.569 714.806 328.812 719.143 332.361L720.409 330.813ZM696.002 320.762C684.857 317.873 667.768 314.786 644.762 311.5L644.479 313.48C667.47 316.764 684.468 319.838 695.5 322.698L696.002 320.762ZM644.774 311.502C600.066 304.529 568.04 293.064 548.534 277.216L547.272 278.768C567.193 294.953 599.644 306.487 644.466 313.478L644.774 311.502ZM548.534 277.216C529.087 261.415 519.334 239.336 519.334 210.844H517.334C517.334 239.849 527.293 262.535 547.272 278.768L548.534 277.216ZM519.334 210.844C519.334 182.069 532.674 159.374 559.519 142.698L558.464 140.999C531.098 157.999 517.334 181.302 517.334 210.844H519.334ZM559.514 142.702C586.816 125.994 623.984 117.591 671.11 117.591V115.591C623.777 115.591 586.2 124.027 558.47 140.996L559.514 142.702ZM671.11 117.591C710.416 117.591 744.135 124.756 772.303 139.044L773.207 137.261C744.7 122.8 710.656 115.591 671.11 115.591V117.591ZM772.308 139.047C800.889 153.337 819.778 172.474 829.114 196.423L830.978 195.696C821.422 171.183 802.118 151.716 773.202 137.258L772.308 139.047ZM829.703 195.12L726.825 232.698L727.512 234.577L830.389 196.999L829.703 195.12ZM728.162 233.524C726.496 218.943 720.851 207.791 711.152 200.2L709.919 201.775C719.112 208.969 724.556 219.584 726.175 233.751L728.162 233.524ZM711.173 200.217C701.491 192.219 688.094 188.283 671.11 188.283V190.283C687.802 190.283 700.689 194.151 709.899 201.759L711.173 200.217ZM671.11 188.283C654.64 188.283 642.152 190.08 633.747 193.757C629.533 195.601 626.296 197.938 624.112 200.805C621.917 203.686 620.827 207.046 620.827 210.844H622.827C622.827 207.456 623.79 204.527 625.703 202.017C627.625 199.494 630.549 197.339 634.548 195.59C642.571 192.08 654.724 190.283 671.11 190.283V188.283ZM620.827 210.844C620.827 216.139 623.279 220.529 628.015 223.974L629.192 222.356C624.893 219.23 622.827 215.406 622.827 210.844H620.827ZM628.049 223.997C633.112 227.373 641.451 230.692 652.97 233.983L653.519 232.06C642.04 228.78 633.951 225.528 629.158 222.333L628.049 223.997ZM653.01 233.994C664.96 236.878 682.651 240.168 706.067 243.866L706.379 241.89C682.977 238.195 665.349 234.915 653.479 232.049L653.01 233.994ZM706.058 243.864C749.944 251.247 781.356 262.914 800.454 278.761L801.731 277.222C782.224 261.036 750.39 249.294 706.389 241.892L706.058 243.864ZM800.464 278.769C819.493 294.154 829.046 316.024 829.046 344.523H831.046C831.046 315.527 821.297 293.042 801.721 277.214L800.464 278.769ZM829.046 344.523C829.046 374.539 815.493 397.633 788.259 413.892L789.284 415.61C817.083 399.014 831.046 375.289 831.046 344.523H829.046ZM788.259 413.892C760.964 430.188 721.951 438.392 671.11 438.392V440.392C722.119 440.392 761.547 432.169 789.284 415.61L788.259 413.892ZM671.11 438.392C582.167 438.392 527.259 410.538 505.713 355.249L503.849 355.975C525.835 412.393 581.813 440.392 671.11 440.392V438.392ZM505.123 356.551L609.849 318.357L609.164 316.478L504.438 354.672L505.123 356.551ZM972.643 292.777V291.777H971.463L971.657 292.941L972.643 292.777ZM998.516 340.211L997.867 340.972L997.873 340.977L997.878 340.981L998.516 340.211ZM1119.87 305.713L1120.21 304.773L1119.13 304.381L1118.9 305.512L1119.87 305.713ZM1225.83 343.907L1226.75 344.315L1227.18 343.332L1226.17 342.967L1225.83 343.907ZM1159.92 414.751L1160.4 415.628L1160.4 415.626L1159.92 414.751ZM952.314 419.679L951.888 420.584L951.893 420.587L952.314 419.679ZM887.015 363.62L886.163 364.145L886.169 364.154L886.174 364.162L887.015 363.62ZM887.015 192.979L886.174 192.438L886.167 192.448L887.015 192.979ZM952.314 136.92L952.74 137.825L952.745 137.823L952.314 136.92ZM1146.36 135.688L1145.94 136.596L1145.96 136.601L1146.36 135.688ZM1210.43 187.435L1209.61 188L1209.61 188.009L1209.62 188.018L1210.43 187.435ZM1230.76 292.777V293.777H1231.57L1231.74 292.989L1230.76 292.777ZM1002.83 212.076L1003.4 212.897L1003.4 212.897L1002.83 212.076ZM975.107 250.886L974.149 250.599L973.763 251.886H975.107V250.886ZM1121.72 250.886V251.886H1123.01L1122.69 250.638L1121.72 250.886ZM1096.47 212.692L1095.84 213.473L1095.86 213.485L1095.87 213.496L1096.47 212.692ZM971.657 292.941C974.977 312.864 983.708 328.895 997.867 340.972L999.165 339.45C985.398 327.707 976.88 312.115 973.629 292.612L971.657 292.941ZM997.878 340.981C1012.45 353.058 1030.35 359.076 1051.5 359.076V357.076C1030.75 357.076 1013.33 351.184 999.154 339.441L997.878 340.981ZM1051.5 359.076C1069.34 359.076 1084.56 354.299 1097.07 344.701L1095.86 343.114C1083.73 352.408 1068.97 357.076 1051.5 357.076V359.076ZM1097.07 344.701C1109.6 335.1 1117.52 322.153 1120.85 305.914L1118.9 305.512C1115.66 321.307 1107.98 333.823 1095.86 343.114L1097.07 344.701ZM1119.54 306.654L1225.49 344.848L1226.17 342.967L1120.21 304.773L1119.54 306.654ZM1224.92 343.5C1211.46 373.684 1189.64 397.138 1159.43 413.876L1160.4 415.626C1190.97 398.687 1213.1 374.913 1226.75 344.315L1224.92 343.5ZM1159.44 413.874C1129.63 430.204 1093.67 438.392 1051.5 438.392V440.392C1093.92 440.392 1130.24 432.153 1160.4 415.628L1159.44 413.874ZM1051.5 438.392C1013.83 438.392 980.916 431.842 952.735 418.772L951.893 420.587C980.387 433.801 1013.6 440.392 1051.5 440.392V438.392ZM952.74 418.775C924.97 405.706 903.353 387.141 887.855 363.079L886.174 364.162C901.889 388.561 923.804 407.368 951.888 420.584L952.74 418.775ZM887.866 363.095C872.779 338.63 865.221 310.274 865.221 277.992H863.221C863.221 310.599 870.859 339.328 886.163 364.145L887.866 363.095ZM865.221 277.992C865.221 245.71 872.779 217.561 887.862 193.511L886.167 192.448C870.859 216.859 863.221 245.385 863.221 277.992H865.221ZM887.855 193.521C903.353 169.459 924.97 150.893 952.74 137.825L951.888 136.016C923.804 149.232 901.889 168.038 886.174 192.438L887.855 193.521ZM952.745 137.823C980.924 124.346 1013.83 117.591 1051.5 117.591V115.591C1013.59 115.591 980.379 122.389 951.883 136.018L952.745 137.823ZM1051.5 117.591C1087.11 117.591 1118.58 123.935 1145.94 136.596L1146.78 134.781C1119.12 121.979 1087.34 115.591 1051.5 115.591V117.591ZM1145.96 136.601C1173.32 148.856 1194.53 165.993 1209.61 188L1211.26 186.87C1195.94 164.523 1174.44 147.162 1146.77 134.776L1145.96 136.601ZM1209.62 188.018C1225.1 209.609 1232.84 234.046 1232.84 261.359H1234.84C1234.84 233.64 1226.98 208.794 1211.24 186.852L1209.62 188.018ZM1232.84 261.359C1232.84 272.8 1231.82 283.2 1229.78 292.564L1231.74 292.989C1233.81 283.462 1234.84 272.917 1234.84 261.359H1232.84ZM1230.76 291.777H972.643V293.777H1230.76V291.777ZM1051.5 196.908C1032.43 196.908 1016 201.677 1002.26 211.256L1003.4 212.897C1016.76 203.584 1032.78 198.908 1051.5 198.908V196.908ZM1002.26 211.256C988.512 220.836 979.14 233.964 974.149 250.599L976.065 251.174C980.931 234.953 990.04 222.208 1003.4 212.897L1002.26 211.256ZM975.107 251.886H1121.72V249.886H975.107V251.886ZM1122.69 250.638C1118.53 234.409 1109.99 221.478 1097.06 211.889L1095.87 213.496C1108.41 222.798 1116.7 235.33 1120.75 251.135L1122.69 250.638ZM1097.09 211.912C1084.57 201.896 1069.35 196.908 1051.5 196.908V198.908C1068.96 198.908 1083.72 203.776 1095.84 213.473L1097.09 211.912ZM1601.71 157.249L1600.92 157.868L1600.92 157.868L1601.71 157.249ZM1633.74 432V433H1634.74V432H1633.74ZM1524.7 432H1523.7V433H1524.7V432ZM1507.46 226.861L1506.66 227.472L1506.67 227.485L1506.68 227.497L1507.46 226.861ZM1411.97 226.861L1411.19 226.236L1411.19 226.239L1411.97 226.861ZM1395.34 432V433H1396.34V432H1395.34ZM1286.3 432H1285.3V433H1286.3V432ZM1286.3 123.984V122.984H1285.3V123.984H1286.3ZM1395.34 123.984H1396.34V122.984H1395.34V123.984ZM1395.34 234.254H1394.34L1396.33 234.375L1395.34 234.254ZM1433.53 148.009L1434.23 148.723L1434.24 148.716L1433.53 148.009ZM1514.23 117.591C1550.91 117.591 1579.77 131.023 1600.92 157.868L1602.49 156.631C1580.93 129.265 1551.48 115.591 1514.23 115.591V117.591ZM1600.92 157.868C1622.1 184.745 1632.74 221.259 1632.74 267.519H1634.74C1634.74 220.964 1624.03 183.965 1602.49 156.631L1600.92 157.868ZM1632.74 267.519V432H1634.74V267.519H1632.74ZM1633.74 431H1524.7V433H1633.74V431ZM1525.7 432V286H1523.7V432H1525.7ZM1525.7 286C1525.7 260.399 1519.92 240.429 1508.23 226.225L1506.68 227.497C1517.99 241.221 1523.7 260.676 1523.7 286H1525.7ZM1508.25 226.25C1496.94 211.596 1480.82 204.3 1460.02 204.3V206.3C1480.29 206.3 1495.79 213.378 1506.66 227.472L1508.25 226.25ZM1460.02 204.3C1439.22 204.3 1422.9 211.596 1411.19 226.236L1412.75 227.486C1424.04 213.378 1439.75 206.3 1460.02 206.3V204.3ZM1411.19 226.239C1399.91 240.441 1394.34 260.406 1394.34 286H1396.34C1396.34 260.669 1401.85 241.208 1412.75 227.483L1411.19 226.239ZM1394.34 286V432H1396.34V286H1394.34ZM1395.34 431H1286.3V433H1395.34V431ZM1287.3 432V123.984H1285.3V432H1287.3ZM1286.3 124.984H1395.34V122.984H1286.3V124.984ZM1394.34 123.984V234.254H1396.34V123.984H1394.34ZM1396.33 234.375C1400.83 197.576 1413.49 169.06 1434.23 148.723L1432.83 147.295C1411.69 168.027 1398.88 197.007 1394.35 234.132L1396.33 234.375ZM1434.24 148.716C1454.98 127.98 1481.61 117.591 1514.23 117.591V115.591C1481.14 115.591 1453.98 126.148 1432.82 147.302L1434.24 148.716ZM1947.96 422.143L1948.34 423.065L1949.08 422.756L1948.94 421.97L1947.96 422.143ZM1757.6 409.823L1756.9 410.537L1756.91 410.544L1756.92 410.551L1757.6 409.823ZM1726.19 193.595H1727.19V192.595H1726.19V193.595ZM1661.5 193.595H1660.5V194.595H1661.5V193.595ZM1661.5 123.984V122.984H1660.5V123.984H1661.5ZM1728.03 107.967L1727.33 107.26L1727.33 107.26L1728.03 107.967ZM1744.67 31.5788V30.5788H1743.67V31.5788H1744.67ZM1843.23 31.5788H1844.23V30.5788H1843.23V31.5788ZM1833.38 95.6462L1834.22 96.1853L1834.22 96.1853L1833.38 95.6462ZM1800.73 117.823L1800.99 118.789L1801 118.785L1801.01 118.782L1800.73 117.823ZM1930.09 123.984H1931.09V122.984H1930.09V123.984ZM1930.09 193.595V194.595H1931.09V193.595H1930.09ZM1835.22 193.595V192.595H1834.22V193.595H1835.22ZM1845.08 337.131L1844.25 337.686L1844.26 337.706L1844.28 337.725L1845.08 337.131ZM1905.45 343.907L1904.95 343.039L1904.95 343.044L1904.94 343.05L1905.45 343.907ZM1930.09 320.498L1931.08 320.325L1930.67 318.012L1929.29 319.908L1930.09 320.498ZM1947.57 421.222C1919.37 433.075 1888.49 439.008 1854.94 439.008V441.008C1888.73 441.008 1919.87 435.032 1948.34 423.065L1947.57 421.222ZM1854.94 439.008C1811.54 439.008 1779.39 428.975 1758.29 409.095L1756.92 410.551C1778.53 430.918 1811.27 441.008 1854.94 441.008V439.008ZM1758.3 409.109C1737.62 388.829 1727.19 358.126 1727.19 316.802H1725.19C1725.19 358.437 1735.7 389.748 1756.9 410.537L1758.3 409.109ZM1727.19 316.802V193.595H1725.19V316.802H1727.19ZM1726.19 192.595H1661.5V194.595H1726.19V192.595ZM1662.5 193.595V123.984H1660.5V193.595H1662.5ZM1661.5 124.984H1673.82V122.984H1661.5V124.984ZM1673.82 124.984C1699.38 124.984 1717.78 119.633 1728.74 108.674L1727.33 107.26C1716.93 117.656 1699.19 122.984 1673.82 122.984V124.984ZM1728.74 108.674C1740.11 97.3097 1745.67 78.7097 1745.67 53.14H1743.67C1743.67 78.4956 1738.14 96.4469 1727.33 107.26L1728.74 108.674ZM1745.67 53.14V31.5788H1743.67V53.14H1745.67ZM1744.67 32.5788H1843.23V30.5788H1744.67V32.5788ZM1842.23 31.5788V53.14H1844.23V31.5788H1842.23ZM1842.23 53.14C1842.23 71.1057 1838.96 85.0609 1832.53 95.1072L1834.22 96.1853C1840.93 85.6972 1844.23 71.3148 1844.23 53.14H1842.23ZM1832.53 95.1072C1826.13 105.118 1815.48 112.395 1800.44 116.865L1801.01 118.782C1816.37 114.217 1827.48 106.709 1834.22 96.1853L1832.53 95.1072ZM1800.46 116.858C1785.39 120.931 1764.35 122.984 1737.27 122.984V124.984C1764.41 124.984 1785.67 122.929 1800.99 118.789L1800.46 116.858ZM1737.27 124.984H1930.09V122.984H1737.27V124.984ZM1929.09 123.984V193.595H1931.09V123.984H1929.09ZM1930.09 192.595H1835.22V194.595H1930.09V192.595ZM1834.22 193.595V290.929H1836.22V193.595H1834.22ZM1834.22 290.929C1834.22 311.938 1837.51 327.581 1844.25 337.686L1845.91 336.576C1839.51 326.968 1836.22 311.809 1836.22 290.929H1834.22ZM1844.28 337.725C1851.5 347.499 1862.94 352.3 1878.35 352.3V350.3C1863.37 350.3 1852.62 345.655 1845.88 336.537L1844.28 337.725ZM1878.35 352.3C1888.38 352.3 1897.59 349.789 1905.97 344.765L1904.94 343.05C1896.88 347.882 1888.03 350.3 1878.35 350.3V352.3ZM1905.95 344.776C1914.73 339.758 1923.04 331.844 1930.9 321.088L1929.29 319.908C1921.54 330.508 1913.42 338.2 1904.95 343.039L1905.95 344.776ZM1929.11 320.671L1946.97 422.317L1948.94 421.97L1931.08 320.325L1929.11 320.671Z" fill="white"/>
</svg>
