<svg width="1920" height="441" viewBox="0 0 1920 441" fill="none" xmlns="http://www.w3.org/2000/svg">
<path d="M-35.2785 0.777198V-0.222802H-36.2785V0.777198H-35.2785ZM86.0799 0.777198H87.0799V-0.222802H86.0799V0.777198ZM86.0799 80.8614V81.8614H87.0799V80.8614H86.0799ZM-35.2785 80.8614H-36.2785V81.8614H-35.2785V80.8614ZM-29.1182 123.984V122.984H-30.1182V123.984H-29.1182ZM79.9196 123.984H80.9196V122.984H79.9196V123.984ZM79.9196 432V433H80.9196V432H79.9196ZM-29.1182 432H-30.1182V433H-29.1182V432ZM-35.2785 1.7772H86.0799V-0.222802H-35.2785V1.7772ZM85.0799 0.777198V80.8614H87.0799V0.777198H85.0799ZM86.0799 79.8614H-35.2785V81.8614H86.0799V79.8614ZM-34.2785 80.8614V0.777198H-36.2785V80.8614H-34.2785ZM-29.1182 124.984H79.9196V122.984H-29.1182V124.984ZM78.9196 123.984V432H80.9196V123.984H78.9196ZM79.9196 431H-29.1182V433H79.9196V431ZM-28.1182 432V123.984H-30.1182V432H-28.1182ZM514.29 432V433H516.332L515.08 431.387L514.29 432ZM387.387 432L386.597 432.612L386.897 433H387.387V432ZM300.527 319.882L301.317 319.27L300.647 318.405L299.846 319.15L300.527 319.882ZM256.788 360.54L256.107 359.808L255.788 360.104V360.54H256.788ZM256.788 432V433H257.788V432H256.788ZM147.751 432H146.751V433H147.751V432ZM147.751 0.777198V-0.222802H146.751V0.777198H147.751ZM256.788 0.777198H257.788V-0.222802H256.788V0.777198ZM256.788 238.566H255.788V240.885L257.475 239.293L256.788 238.566ZM378.147 123.984V122.984H377.749L377.46 123.257L378.147 123.984ZM506.897 123.984L507.584 124.711L509.412 122.984H506.897V123.984ZM373.218 250.27L372.532 249.543L371.872 250.167L372.429 250.884L373.218 250.27ZM514.29 431H387.387V433H514.29V431ZM388.178 431.388L301.317 319.27L299.736 320.495L386.597 432.612L388.178 431.388ZM299.846 319.15L256.107 359.808L257.469 361.273L301.207 320.614L299.846 319.15ZM255.788 360.54V432H257.788V360.54H255.788ZM256.788 431H147.751V433H256.788V431ZM148.751 432V0.777198H146.751V432H148.751ZM147.751 1.7772H256.788V-0.222802H147.751V1.7772ZM255.788 0.777198V238.566H257.788V0.777198H255.788ZM257.475 239.293L378.833 124.711L377.46 123.257L256.102 237.839L257.475 239.293ZM378.147 124.984H506.897V122.984H378.147V124.984ZM506.211 123.257L372.532 249.543L373.905 250.997L507.584 124.711L506.211 123.257ZM372.429 250.884L513.5 432.613L515.08 431.387L374.008 249.657L372.429 250.884ZM609.775 317.418L610.77 317.321L610.645 316.036L609.432 316.478L609.775 317.418ZM627.024 354.996L626.384 355.764L626.401 355.779L626.419 355.792L627.024 354.996ZM720.045 331.587L719.411 332.361L719.434 332.379L719.457 332.395L720.045 331.587ZM696.019 321.73L695.768 322.698L695.777 322.7L696.019 321.73ZM644.889 312.49L644.735 313.478L644.747 313.48L644.889 312.49ZM548.172 277.992L547.541 278.768L547.541 278.768L548.172 277.992ZM559.26 141.849L558.738 140.996L558.733 140.999L559.26 141.849ZM773.024 138.152L772.571 139.044L772.576 139.047L773.024 138.152ZM830.315 196.06L830.658 196.999L831.617 196.648L831.246 195.696L830.315 196.06ZM727.437 233.638L726.444 233.751L726.588 235.012L727.78 234.577L727.437 233.638ZM710.804 200.988L710.167 201.759L710.178 201.767L710.188 201.775L710.804 200.988ZM628.872 223.165L628.284 223.974L628.3 223.986L628.317 223.997L628.872 223.165ZM653.513 233.021L653.238 233.983L653.258 233.989L653.279 233.994L653.513 233.021ZM706.492 242.878L706.658 241.892L706.648 241.89L706.492 242.878ZM801.361 277.992L800.722 278.761L800.732 278.769L801.361 277.992ZM789.04 414.751L788.528 413.892L788.528 413.892L789.04 414.751ZM505.049 355.612L504.707 354.672L503.746 355.023L504.118 355.975L505.049 355.612ZM608.78 317.515C610.439 334.529 616.267 347.334 626.384 355.764L627.664 354.228C618.068 346.231 612.396 333.984 610.77 317.321L608.78 317.515ZM626.419 355.792C636.927 363.779 651.961 367.701 671.378 367.701V365.701C652.191 365.701 637.655 361.819 627.629 354.2L626.419 355.792ZM671.378 367.701C689.896 367.701 703.911 365.853 713.332 362.085C718.051 360.197 721.675 357.805 724.124 354.866C726.588 351.91 727.821 348.447 727.821 344.523H725.821C725.821 347.992 724.744 350.998 722.588 353.586C720.416 356.191 717.111 358.419 712.589 360.228C703.528 363.852 689.822 365.701 671.378 365.701V367.701ZM727.821 344.523C727.821 338.847 725.395 334.241 720.633 330.778L719.457 332.395C723.729 335.503 725.821 339.521 725.821 344.523H727.821ZM720.678 330.813C715.98 326.969 707.787 323.641 696.262 320.76L695.777 322.7C707.251 325.569 715.075 328.812 719.411 332.361L720.678 330.813ZM696.27 320.762C685.125 317.873 668.036 314.786 645.03 311.5L644.747 313.48C667.738 316.764 684.736 319.838 695.769 322.698L696.27 320.762ZM645.043 311.502C600.335 304.529 568.308 293.064 548.802 277.216L547.541 278.768C567.461 294.953 599.913 306.487 644.735 313.478L645.043 311.502ZM548.802 277.216C529.356 261.415 519.602 239.336 519.602 210.844H517.602C517.602 239.849 527.562 262.535 547.541 278.768L548.802 277.216ZM519.602 210.844C519.602 182.069 532.943 159.374 559.788 142.698L558.733 140.999C531.367 157.999 517.602 181.302 517.602 210.844H519.602ZM559.782 142.702C587.084 125.994 624.253 117.591 671.378 117.591V115.591C624.045 115.591 586.468 124.027 558.738 140.996L559.782 142.702ZM671.378 117.591C710.684 117.591 744.404 124.756 772.571 139.044L773.476 137.261C744.968 122.8 710.924 115.591 671.378 115.591V117.591ZM772.576 139.047C801.157 153.337 820.047 172.474 829.383 196.423L831.246 195.696C821.69 171.183 802.386 151.716 773.471 137.258L772.576 139.047ZM829.971 195.12L727.094 232.698L727.78 234.577L830.658 196.999L829.971 195.12ZM728.431 233.524C726.764 218.943 721.12 207.791 711.421 200.2L710.188 201.775C719.38 208.969 724.825 219.584 726.444 233.751L728.431 233.524ZM711.441 200.217C701.759 192.219 688.362 188.283 671.378 188.283V190.283C688.07 190.283 700.958 194.151 710.167 201.759L711.441 200.217ZM671.378 188.283C654.908 188.283 642.421 190.08 634.015 193.757C629.801 195.601 626.565 197.938 624.38 200.805C622.186 203.686 621.096 207.046 621.096 210.844H623.096C623.096 207.456 624.059 204.527 625.971 202.017C627.894 199.494 630.817 197.339 634.817 195.59C642.839 192.08 654.993 190.283 671.378 190.283V188.283ZM621.096 210.844C621.096 216.139 623.547 220.529 628.284 223.974L629.46 222.356C625.162 219.23 623.096 215.406 623.096 210.844H621.096ZM628.317 223.997C633.381 227.373 641.72 230.692 653.238 233.983L653.788 232.06C642.308 228.78 634.22 225.528 629.427 222.333L628.317 223.997ZM653.279 233.994C665.228 236.878 682.92 240.168 706.336 243.866L706.648 241.89C683.246 238.195 665.618 234.915 653.748 232.049L653.279 233.994ZM706.326 243.864C750.212 251.247 781.624 262.914 800.722 278.761L802 277.222C782.493 261.036 750.659 249.294 706.658 241.892L706.326 243.864ZM800.732 278.769C819.761 294.154 829.315 316.024 829.315 344.523H831.315C831.315 315.527 821.566 293.042 801.99 277.214L800.732 278.769ZM829.315 344.523C829.315 374.539 815.762 397.633 788.528 413.892L789.553 415.61C817.351 399.014 831.315 375.289 831.315 344.523H829.315ZM788.528 413.892C761.233 430.188 722.219 438.392 671.378 438.392V440.392C722.388 440.392 761.816 432.169 789.553 415.61L788.528 413.892ZM671.378 438.392C582.436 438.392 527.528 410.538 505.981 355.249L504.118 355.975C526.104 412.393 582.082 440.392 671.378 440.392V438.392ZM505.392 356.551L610.118 318.357L609.432 316.478L504.707 354.672L505.392 356.551ZM972.912 292.777V291.777H971.731L971.925 292.941L972.912 292.777ZM998.785 340.211L998.136 340.972L998.141 340.977L998.147 340.981L998.785 340.211ZM1120.14 305.713L1120.48 304.773L1119.4 304.381L1119.16 305.512L1120.14 305.713ZM1226.1 343.907L1227.01 344.315L1227.45 343.332L1226.44 342.967L1226.1 343.907ZM1160.19 414.751L1160.67 415.628L1160.67 415.626L1160.19 414.751ZM952.583 419.679L952.157 420.584L952.162 420.587L952.583 419.679ZM887.283 363.62L886.432 364.145L886.437 364.154L886.442 364.162L887.283 363.62ZM887.283 192.979L886.442 192.438L886.436 192.448L887.283 192.979ZM952.583 136.92L953.008 137.825L953.014 137.823L952.583 136.92ZM1146.63 135.688L1146.21 136.596L1146.22 136.601L1146.63 135.688ZM1210.7 187.435L1209.88 188L1209.88 188.009L1209.89 188.018L1210.7 187.435ZM1231.03 292.777V293.777H1231.84L1232.01 292.989L1231.03 292.777ZM1003.1 212.076L1003.67 212.897L1003.67 212.897L1003.1 212.076ZM975.376 250.886L974.418 250.599L974.032 251.886H975.376V250.886ZM1121.99 250.886V251.886H1123.28L1122.96 250.638L1121.99 250.886ZM1096.73 212.692L1096.11 213.473L1096.12 213.485L1096.14 213.496L1096.73 212.692ZM971.925 292.941C975.246 312.864 983.977 328.895 998.136 340.972L999.434 339.45C985.666 327.707 977.148 312.115 973.898 292.612L971.925 292.941ZM998.147 340.981C1012.72 353.058 1030.62 359.076 1051.76 359.076V357.076C1031.02 357.076 1013.6 351.184 999.423 339.441L998.147 340.981ZM1051.76 359.076C1069.61 359.076 1084.82 354.299 1097.34 344.701L1096.13 343.114C1084 352.408 1069.24 357.076 1051.76 357.076V359.076ZM1097.34 344.701C1109.87 335.1 1117.79 322.153 1121.12 305.914L1119.16 305.512C1115.92 321.307 1108.24 333.823 1096.13 343.114L1097.34 344.701ZM1119.8 306.654L1225.76 344.848L1226.44 342.967L1120.48 304.773L1119.8 306.654ZM1225.19 343.5C1211.73 373.684 1189.91 397.138 1159.7 413.876L1160.67 415.626C1191.24 398.687 1213.37 374.913 1227.01 344.315L1225.19 343.5ZM1159.7 413.874C1129.9 430.204 1093.94 438.392 1051.76 438.392V440.392C1094.19 440.392 1130.51 432.153 1160.67 415.628L1159.7 413.874ZM1051.76 438.392C1014.1 438.392 981.184 431.842 953.003 418.772L952.162 420.587C980.656 433.801 1013.87 440.392 1051.76 440.392V438.392ZM953.008 418.775C925.239 405.706 903.621 387.141 888.124 363.079L886.442 364.162C902.157 388.561 924.073 407.368 952.157 420.584L953.008 418.775ZM888.134 363.095C873.047 338.63 865.49 310.274 865.49 277.992H863.49C863.49 310.599 871.128 339.328 886.432 364.145L888.134 363.095ZM865.49 277.992C865.49 245.71 873.048 217.561 888.13 193.511L886.436 192.448C871.128 216.859 863.49 245.385 863.49 277.992H865.49ZM888.124 193.521C903.621 169.459 925.239 150.893 953.008 137.825L952.157 136.016C924.073 149.232 902.157 168.038 886.442 192.438L888.124 193.521ZM953.014 137.823C981.192 124.346 1014.1 117.591 1051.76 117.591V115.591C1013.86 115.591 980.648 122.389 952.151 136.018L953.014 137.823ZM1051.76 117.591C1087.37 117.591 1118.85 123.935 1146.21 136.596L1147.05 134.781C1119.38 121.979 1087.61 115.591 1051.76 115.591V117.591ZM1146.22 136.601C1173.59 148.856 1194.8 165.993 1209.88 188L1211.53 186.87C1196.21 164.523 1174.7 147.162 1147.04 134.776L1146.22 136.601ZM1209.89 188.018C1225.37 209.609 1233.11 234.046 1233.11 261.359H1235.11C1235.11 233.64 1227.24 208.794 1211.51 186.852L1209.89 188.018ZM1233.11 261.359C1233.11 272.8 1232.09 283.2 1230.05 292.564L1232.01 292.989C1234.08 283.462 1235.11 272.917 1235.11 261.359H1233.11ZM1231.03 291.777H972.912V293.777H1231.03V291.777ZM1051.76 196.908C1032.7 196.908 1016.27 201.677 1002.53 211.256L1003.67 212.897C1017.03 203.584 1033.05 198.908 1051.76 198.908V196.908ZM1002.53 211.256C988.78 220.836 979.408 233.964 974.418 250.599L976.334 251.174C981.2 234.953 990.309 222.208 1003.67 212.897L1002.53 211.256ZM975.376 251.886H1121.99V249.886H975.376V251.886ZM1122.96 250.638C1118.8 234.409 1110.25 221.478 1097.33 211.889L1096.14 213.496C1108.68 222.798 1116.97 235.33 1121.02 251.135L1122.96 250.638ZM1097.36 211.912C1084.84 201.896 1069.62 196.908 1051.76 196.908V198.908C1069.22 198.908 1083.99 203.776 1096.11 213.473L1097.36 211.912ZM1601.98 157.249L1601.19 157.868L1601.19 157.868L1601.98 157.249ZM1634.01 432V433H1635.01V432H1634.01ZM1524.97 432H1523.97V433H1524.97V432ZM1507.72 226.861L1506.93 227.472L1506.94 227.485L1506.95 227.497L1507.72 226.861ZM1412.24 226.861L1411.46 226.236L1411.46 226.239L1412.24 226.861ZM1395.61 432V433H1396.61V432H1395.61ZM1286.57 432H1285.57V433H1286.57V432ZM1286.57 123.984V122.984H1285.57V123.984H1286.57ZM1395.61 123.984H1396.61V122.984H1395.61V123.984ZM1395.61 234.254H1394.61L1396.6 234.375L1395.61 234.254ZM1433.8 148.009L1434.5 148.723L1434.51 148.716L1433.8 148.009ZM1514.5 117.591C1551.18 117.591 1580.04 131.023 1601.19 157.868L1602.76 156.631C1581.2 129.265 1551.74 115.591 1514.5 115.591V117.591ZM1601.19 157.868C1622.37 184.745 1633.01 221.259 1633.01 267.519H1635.01C1635.01 220.964 1624.3 183.965 1602.76 156.631L1601.19 157.868ZM1633.01 267.519V432H1635.01V267.519H1633.01ZM1634.01 431H1524.97V433H1634.01V431ZM1525.97 432V286H1523.97V432H1525.97ZM1525.97 286C1525.97 260.399 1520.19 240.429 1508.5 226.225L1506.95 227.497C1518.25 241.221 1523.97 260.676 1523.97 286H1525.97ZM1508.52 226.25C1497.21 211.596 1481.09 204.3 1460.29 204.3V206.3C1480.56 206.3 1496.06 213.378 1506.93 227.472L1508.52 226.25ZM1460.29 204.3C1439.49 204.3 1423.17 211.596 1411.46 226.236L1413.02 227.486C1424.31 213.378 1440.02 206.3 1460.29 206.3V204.3ZM1411.46 226.239C1400.18 240.441 1394.61 260.406 1394.61 286H1396.61C1396.61 260.669 1402.12 241.208 1413.02 227.483L1411.46 226.239ZM1394.61 286V432H1396.61V286H1394.61ZM1395.61 431H1286.57V433H1395.61V431ZM1287.57 432V123.984H1285.57V432H1287.57ZM1286.57 124.984H1395.61V122.984H1286.57V124.984ZM1394.61 123.984V234.254H1396.61V123.984H1394.61ZM1396.6 234.375C1401.1 197.576 1413.76 169.06 1434.5 148.723L1433.1 147.295C1411.95 168.027 1399.15 197.007 1394.61 234.132L1396.6 234.375ZM1434.51 148.716C1455.24 127.98 1481.88 117.591 1514.5 117.591V115.591C1481.41 115.591 1454.25 126.148 1433.09 147.302L1434.51 148.716ZM1948.23 422.143L1948.61 423.065L1949.35 422.756L1949.21 421.97L1948.23 422.143ZM1757.87 409.823L1757.17 410.537L1757.18 410.544L1757.19 410.551L1757.87 409.823ZM1726.45 193.595H1727.45V192.595H1726.45V193.595ZM1661.77 193.595H1660.77V194.595H1661.77V193.595ZM1661.77 123.984V122.984H1660.77V123.984H1661.77ZM1728.3 107.967L1727.6 107.26L1727.6 107.26L1728.3 107.967ZM1744.94 31.5788V30.5788H1743.94V31.5788H1744.94ZM1843.5 31.5788H1844.5V30.5788H1843.5V31.5788ZM1833.64 95.6462L1834.49 96.1853L1834.49 96.1853L1833.64 95.6462ZM1800.99 117.823L1801.26 118.789L1801.27 118.785L1801.28 118.782L1800.99 117.823ZM1930.36 123.984H1931.36V122.984H1930.36V123.984ZM1930.36 193.595V194.595H1931.36V193.595H1930.36ZM1835.49 193.595V192.595H1834.49V193.595H1835.49ZM1845.35 337.131L1844.52 337.686L1844.53 337.706L1844.54 337.725L1845.35 337.131ZM1905.72 343.907L1905.22 343.039L1905.21 343.044L1905.21 343.05L1905.72 343.907ZM1930.36 320.498L1931.35 320.325L1930.94 318.012L1929.55 319.908L1930.36 320.498ZM1947.84 421.222C1919.63 433.075 1888.76 439.008 1855.2 439.008V441.008C1889 441.008 1920.14 435.032 1948.61 423.065L1947.84 421.222ZM1855.2 439.008C1811.81 439.008 1779.66 428.975 1758.56 409.095L1757.19 410.551C1778.8 430.918 1811.54 441.008 1855.2 441.008V439.008ZM1758.57 409.109C1737.89 388.829 1727.45 358.126 1727.45 316.802H1725.45C1725.45 358.437 1735.97 389.748 1757.17 410.537L1758.57 409.109ZM1727.45 316.802V193.595H1725.45V316.802H1727.45ZM1726.45 192.595H1661.77V194.595H1726.45V192.595ZM1662.77 193.595V123.984H1660.77V193.595H1662.77ZM1661.77 124.984H1674.09V122.984H1661.77V124.984ZM1674.09 124.984C1699.65 124.984 1718.05 119.633 1729.01 108.674L1727.6 107.26C1717.2 117.656 1699.46 122.984 1674.09 122.984V124.984ZM1729.01 108.674C1740.37 97.3097 1745.94 78.7097 1745.94 53.14H1743.94C1743.94 78.4956 1738.41 96.4469 1727.6 107.26L1729.01 108.674ZM1745.94 53.14V31.5788H1743.94V53.14H1745.94ZM1744.94 32.5788H1843.5V30.5788H1744.94V32.5788ZM1842.5 31.5788V53.14H1844.5V31.5788H1842.5ZM1842.5 53.14C1842.5 71.1057 1839.23 85.0609 1832.8 95.1072L1834.49 96.1853C1841.2 85.6972 1844.5 71.3148 1844.5 53.14H1842.5ZM1832.8 95.1072C1826.39 105.118 1815.75 112.395 1800.71 116.865L1801.28 118.782C1816.63 114.217 1827.75 106.709 1834.49 96.1853L1832.8 95.1072ZM1800.73 116.858C1785.66 120.931 1764.61 122.984 1737.54 122.984V124.984C1764.68 124.984 1785.93 122.929 1801.26 118.789L1800.73 116.858ZM1737.54 124.984H1930.36V122.984H1737.54V124.984ZM1929.36 123.984V193.595H1931.36V123.984H1929.36ZM1930.36 192.595H1835.49V194.595H1930.36V192.595ZM1834.49 193.595V290.929H1836.49V193.595H1834.49ZM1834.49 290.929C1834.49 311.938 1837.78 327.581 1844.52 337.686L1846.18 336.576C1839.77 326.968 1836.49 311.809 1836.49 290.929H1834.49ZM1844.54 337.725C1851.77 347.499 1863.2 352.3 1878.61 352.3V350.3C1863.63 350.3 1852.89 345.655 1846.15 336.537L1844.54 337.725ZM1878.61 352.3C1888.65 352.3 1897.86 349.789 1906.23 344.765L1905.21 343.05C1897.15 347.882 1888.3 350.3 1878.61 350.3V352.3ZM1906.22 344.776C1915 339.758 1923.31 331.844 1931.17 321.088L1929.55 319.908C1921.81 330.508 1913.69 338.2 1905.22 343.039L1906.22 344.776ZM1929.38 320.671L1947.24 422.317L1949.21 421.97L1931.35 320.325L1929.38 320.671Z" fill="white"/>
</svg>
